<svg xmlns="http://www.w3.org/2000/svg" width="37" height="37" viewBox="0 0 37 37">
    <g fill="none">
        <g>
            <path fill="#FFF" d="M6.938 10.637L6.938 8.463 2.574 8.463 2.574 6.288 6.678 6.288 6.678 4.298 2.574 4.298 2.574 2.175 6.938 2.175 6.938 0 0 0 0 10.637z" transform="translate(9.25 12.95)"/>
            <path fill="#FFD316" d="M14.296 11.1c2.873 0 4.666-1.756 4.666-4.58V5.173h-4.418v1.661h2.282l-.007.19c-.044 1.274-1.043 2.13-2.487 2.13-1.735 0-2.829-1.376-2.829-3.637 0-2.217 1.043-3.57 2.742-3.57 1.225 0 2.107.621 2.435 1.69h2.188C18.56 1.44 16.73 0 14.245 0 11.182 0 9.25 2.137 9.25 5.539c0 3.454 1.918 5.561 5.046 5.561z" transform="translate(9.25 12.95)"/>
        </g>
        <path fill="#FFD316" d="M18.5 0C8.283 0 0 8.283 0 18.5S8.283 37 18.5 37 37 28.717 37 18.5 28.717 0 18.5 0zm0 1.85c9.196 0 16.65 7.454 16.65 16.65 0 9.196-7.454 16.65-16.65 16.65-9.196 0-16.65-7.454-16.65-16.65 0-9.196 7.454-16.65 16.65-16.65z"/>
        <path fill="#FFF" d="M18.5 0C28.717 0 37 8.283 37 18.5c0 10.115-8.118 18.334-18.194 18.498L18.5 37v-1.85c9.196 0 16.65-7.454 16.65-16.65 0-9.104-7.306-16.5-16.375-16.648L18.5 1.85V0z"/>
    </g>
</svg>
