<svg xmlns="http://www.w3.org/2000/svg" width="20" height="20" viewBox="0 0 20 20">
    <g fill="none" fill-rule="evenodd">
        <g fill="#FFF" fill-rule="nonzero">
            <g>
                <g>
                    <g>
                        <g>
                            <path d="M12.356 10H7.644c-.355 0-.644.317-.644.707v1.586c0 .39.289.707.644.707h4.712c.355 0 .644-.317.644-.707v-1.586c0-.39-.289-.707-.644-.707zm-.106 2.25h-4.5v-1.5h4.5v1.5z" transform="translate(-32 -333) translate(0 70) translate(32 258) translate(0 5) translate(0 2)"/>
                            <path d="M19.804 7.16l.006-.004-2.906-5.541c-.235-.448-.705-.726-1.225-.726h-.552V.374c0-.207-.174-.374-.388-.374H5.261c-.214 0-.388.167-.388.374v.515h-.552c-.52 0-.99.278-1.224.726L.19 7.156l.006.003C.072 7.357 0 7.59 0 7.837v5.854C0 14.413.609 15 1.357 15h17.286C19.39 15 20 14.413 20 13.69V7.838c0-.248-.072-.48-.196-.678zm-4.677-5.44h.552c.194 0 .368.103.456.27l2.38 4.538h-1.618V5.13c0-.206-.174-.373-.388-.373h-.48V2.753c0-.207-.173-.374-.387-.374h-.515v-.66zm.994 4.808h-2.045c-.35 0-.67.199-.815.508l-.558 1.194c-.006.011-.017.019-.03.019H7.327c-.013 0-.024-.008-.03-.019L6.74 7.036c-.144-.309-.464-.508-.815-.508H3.879V5.505H16.12v1.023zM5.65.748h8.702v1.63H5.65V.749zM3.865 1.99c.088-.167.262-.27.456-.27h.552v.659h-.515c-.214 0-.388.167-.388.374v2.005h-.479c-.214 0-.388.167-.388.373v1.397H1.485l2.38-4.538zm14.778 12.18H1.358c-.274 0-.497-.215-.497-.48V7.838c0-.264.223-.479.496-.479h4.567c.013 0 .024.008.03.019l.558 1.194c.144.309.464.508.815.508h5.346c.35 0 .67-.2.815-.508l.558-1.194c.006-.011.017-.019.03-.019h4.566c.274 0 .497.215.497.479v5.854c0 .264-.223.478-.496.478z" transform="translate(-32 -333) translate(0 70) translate(32 258) translate(0 5) translate(0 2)"/>
                        </g>
                    </g>
                </g>
            </g>
        </g>
    </g>
</svg>
