<svg xmlns="http://www.w3.org/2000/svg" width="30" height="30" viewBox="0 0 30 30">
    <g fill="#FFD316">
        <path d="M25.75 0h-22C1.679 0 0 1.679 0 3.75v22c0 2.071 1.679 3.75 3.75 3.75h22c2.071 0 3.75-1.679 3.75-3.75v-22C29.5 1.679 27.821 0 25.75 0zm-22 1.5h22C26.993 1.5 28 2.507 28 3.75v22c0 1.243-1.007 2.25-2.25 2.25h-22c-1.243 0-2.25-1.007-2.25-2.25v-22c0-1.243 1.007-2.25 2.25-2.25z"/>
        <path d="M21.712 6H8.288C7.024 6 6 7.024 6 8.288v13.424C6 22.976 7.024 24 8.288 24h13.424C22.976 24 24 22.976 24 21.712V8.288C24 7.024 22.976 6 21.712 6z"/>
    </g>
</svg>
