<svg xmlns="http://www.w3.org/2000/svg" width="20" height="20" viewBox="0 0 20 20">
    <g fill="none" fill-rule="evenodd">
        <g fill="#FFD316" fill-rule="nonzero">
            <g>
                <g>
                    <g>
                        <g>
                            <path d="M18.502 1.887h-1.96V.826c0-.448-.387-.826-.846-.826h-1.209c-.459 0-.846.378-.846.826v1.061H6.458V.826C6.458.378 6.07 0 5.61 0H4.402c-.459 0-.846.378-.846.826v1.061H1.5c-.822 0-1.5.66-1.5 1.464v13.186C0 17.338.676 18 1.5 18h17c.822 0 1.5-.66 1.5-1.463V3.35c0-.804-.676-1.464-1.498-1.464zM14.537.896h1.112V3.49h-1.112V.895zM4.45.896h1.113V3.49H4.451V.895zM1.525 2.76H3.58v.777c0 .448.388.826.847.826h1.209c.459 0 .846-.378.846-.826v-.777h7.159v.777c0 .448.387.826.846.826h1.21c.458 0 .846-.378.846-.826v-.777h1.984c.338 0 .604.26.604.59V5.71H.921V3.35c0-.331.266-.59.604-.59zm16.977 14.365H1.525c-.338 0-.605-.26-.605-.59V6.582h18.187v9.956c0 .33-.267.59-.605.59zM4.863 8.964c0 .236-.192.424-.434.424H2.978c-.242 0-.434-.188-.434-.424s.192-.424.434-.424h1.451c.24-.024.434.188.434.424zm4.183 0c0 .236-.192.424-.434.424H7.16c-.242 0-.435-.188-.435-.424s.193-.424.435-.424h1.45c.218-.024.435.188.435.424zm4.16 0c0 .236-.192.424-.434.424h-1.45c-.243 0-.435-.188-.435-.424s.192-.424.434-.424h1.451c.24-.024.434.188.434.424zm4.183 0c0 .236-.192.424-.434.424h-1.451c-.242 0-.435-.188-.435-.424s.193-.424.435-.424h1.45c.243-.024.435.188.435.424zm-12.526 2.9c0 .236-.192.424-.434.424H2.978c-.242 0-.434-.188-.434-.423 0-.236.192-.424.434-.424h1.451c.24 0 .434.188.434.424zm4.183 0c0 .236-.192.424-.434.424H7.16c-.242 0-.435-.188-.435-.423 0-.236.193-.424.435-.424h1.45c.218 0 .435.188.435.424zm4.16 0c0 .236-.192.424-.434.424h-1.45c-.243 0-.435-.188-.435-.423 0-.236.192-.424.434-.424h1.451c.24 0 .434.188.434.424zm4.183 0c0 .236-.192.424-.434.424h-1.451c-.242 0-.435-.188-.435-.423 0-.236.193-.424.435-.424h1.45c.243 0 .435.188.435.424zM4.863 14.792c0 .236-.192.424-.434.424H2.978c-.242 0-.434-.188-.434-.424 0-.235.192-.423.434-.423h1.451c.24-.027.434.163.434.423zm4.183 0c0 .236-.192.424-.434.424H7.16c-.242 0-.435-.188-.435-.424 0-.235.193-.423.435-.423h1.45c.218-.027.435.163.435.423zm4.16 0c0 .236-.192.424-.434.424h-1.45c-.243 0-.435-.188-.435-.424 0-.235.192-.423.434-.423h1.451c.24-.027.434.163.434.423zm4.183 0c0 .236-.192.424-.434.424h-1.451c-.242 0-.435-.188-.435-.424 0-.235.193-.423.435-.423h1.45c.243-.027.435.163.435.423z" transform="translate(-1000 -396) translate(950 70) translate(50 321) translate(0 5) translate(0 1)"/>
                        </g>
                    </g>
                </g>
            </g>
        </g>
    </g>
</svg>
