<svg xmlns="http://www.w3.org/2000/svg" width="16" height="16" viewBox="0 0 16 16">
    <g fill="none" fill-rule="evenodd">
        <g fill="#C9C9C9">
            <g>
                <g>
                    <path d="M8 7c4.418 0 8 3.582 8 8s-3.582 8-8 8-8-3.582-8-8 3.582-8 8-8zm-.421 2.947c-.233 0-.421.189-.421.421v5.474h7.158l.075-.007c.197-.035.346-.207.346-.414l-.007-.076c-.036-.196-.208-.345-.414-.345H8v-4.632l-.007-.075c-.035-.197-.207-.346-.414-.346z" transform="translate(-583 -242) translate(435 235) translate(148)"/>
                </g>
            </g>
        </g>
    </g>
</svg>
