<svg xmlns="http://www.w3.org/2000/svg" width="24" height="24" viewBox="0 0 24 24">
    <g fill="none" fill-rule="evenodd">
        <g fill="#FFD316" fill-rule="nonzero">
            <g>
                <g>
                    <g>
                        <g>
                            <path d="M12.056 0c-.007.006-.02.006-.04.006C5.39.006 0 5.3 0 11.806c0 2.656.923 5.234 2.613 7.311L.864 23.104c-.144.328.013.707.34.842.119.052.25.065.374.045l6.411-1.106c1.284.457 2.633.689 3.995.682 6.627 0 12.016-5.292 12.016-11.8C24.013 5.28 18.663.007 12.056 0zm-.066 22.287c-1.264 0-2.514-.225-3.7-.662-.111-.045-.229-.051-.347-.032l-5.396.926 1.428-3.26c.098-.225.059-.489-.105-.675-.773-.881-1.388-1.884-1.82-2.971-.485-1.216-.734-2.508-.734-3.813 0-5.8 4.807-10.514 10.707-10.514 5.887-.013 10.667 4.662 10.674 10.443v.038c0 5.807-4.807 10.52-10.707 10.52z" transform="translate(-991 -237) translate(869 70) translate(0 151) translate(13 1) translate(109 15)"/>
                            <path d="M11.351 9.366H7.85c-.357 0-.649.263-.649.585 0 .322.292.586.649.586h3.502c.357 0 .649-.264.649-.586 0-.322-.292-.585-.649-.585zM16.133 12.878H7.867c-.367 0-.667.263-.667.585 0 .322.3.586.667.586h8.266c.367 0 .667-.264.667-.586 0-.322-.3-.585-.667-.585z" transform="translate(-991 -237) translate(869 70) translate(0 151) translate(13 1) translate(109 15)"/>
                        </g>
                    </g>
                </g>
            </g>
        </g>
    </g>
</svg>
