<svg xmlns="http://www.w3.org/2000/svg" width="20" height="20" viewBox="0 0 20 20">
    <g fill="none" fill-rule="evenodd">
        <g fill="#FFC718">
            <g>
                <g>
                    <g>
                        <g>
                            <g>
                                <g>
                                    <path d="M17.484 10.08c-.286 0-.515.239-.515.538v4.894c0 1.332-1.04 2.412-2.312 2.412H3.343c-1.276 0-2.312-1.084-2.312-2.412v-4.974c0-.299-.229-.538-.515-.538-.287 0-.516.24-.516.538v4.974C0 17.438 1.501 19 3.343 19h11.314C16.503 19 18 17.434 18 15.512v-4.894c0-.295-.23-.538-.516-.538z" transform="translate(-920 -823) translate(224 516) translate(695 132) translate(.5) translate(.5 170) translate(0 5) translate(1 1)"/>
                                    <path d="M8.62 13.832c.104.11.245.168.382.168s.278-.055.383-.168l3.455-3.602c.213-.222.213-.579 0-.802-.214-.222-.556-.222-.77 0l-2.524 2.637V.567C9.546.252 9.304 0 9.002 0c-.302 0-.544.252-.544.567v11.498L5.93 9.428c-.213-.222-.555-.222-.769 0-.213.223-.213.58 0 .802l3.46 3.602z" transform="translate(-920 -823) translate(224 516) translate(695 132) translate(.5) translate(.5 170) translate(0 5) translate(1 1)"/>
                                </g>
                            </g>
                        </g>
                    </g>
                </g>
            </g>
        </g>
    </g>
</svg>
