<svg xmlns="http://www.w3.org/2000/svg" width="20" height="20" viewBox="0 0 20 20">
    <g fill="#909090" fill-rule="evenodd">
        <path fill-rule="nonzero" d="M15.5 13.47v4.706c0 1.284-1.036 2.324-2.313 2.324H3.813c-1.277 0-2.313-1.04-2.313-2.324V7.824C1.5 6.54 2.536 5.5 3.813 5.5H8.5c.276 0 .5-.224.5-.5s-.224-.5-.5-.5H3.812C1.982 4.5.5 5.988.5 7.824v10.352c0 1.836 1.483 3.324 3.313 3.324h9.374c1.83 0 3.313-1.488 3.313-3.324v-4.705c0-.277-.224-.5-.5-.5s-.5.223-.5.5z" transform="translate(0 -2)"/>
        <path d="M18.562 2.9c.151-.003.292.055.39.152.096.096.157.235.151.389l-.104 4.99c-.006.308-.258.56-.567.567-.308.006-.55-.236-.543-.544l.078-3.65-8.13 8.13c-.223.224-.572.23-.785.017-.214-.213-.207-.562.016-.785l8.13-8.13-3.652.075c-.308.007-.55-.235-.544-.543.006-.309.259-.561.567-.567l4.993-.101z" transform="translate(0 -2)"/>
    </g>
</svg>
