<svg xmlns="http://www.w3.org/2000/svg" width="26" height="29" viewBox="0 0 26 29">
    <g fill="none" fill-rule="evenodd">
        <g fill="#C9C9C9" fill-rule="nonzero">
            <g>
                <g>
                    <g>
                        <g>
                            <g>
                                <g>
                                    <path d="M19.159.6c.751 0 1.369.566 1.435 1.29l.006.128v2.66h-1.081v-2.66c0-.17-.124-.314-.288-.347l-.072-.007H2.04c-.174 0-.319.121-.353.283l-.007.071v22.164c0 .17.124.314.288.347l.072.007h2.703V25.6H2.041c-.751 0-1.369-.566-1.435-1.29L.6 24.183V2.018c0-.74.576-1.347 1.31-1.412L2.041.6H19.16z" transform="translate(-938 -235) translate(869 70) translate(0 151) translate(13 1) translate(41) translate(15 13) translate(.4 .4)"/>
                                    <g>
                                        <g>
                                            <g>
                                                <path d="M.94.891h8.47c.293 0 .532.244.532.546 0 .303-.24.547-.533.547H.941c-.294 0-.533-.244-.533-.546 0-.303.24-.547.533-.547zM.94 5.204h8.47c.293 0 .532.244.532.546 0 .302-.24.546-.533.546H.941c-.294 0-.533-.244-.533-.546 0-.302.24-.546.533-.546zM.94 9.516h8.47c.293 0 .532.244.532.546 0 .303-.24.547-.533.547H.941c-.294 0-.533-.244-.533-.546 0-.303.24-.547.533-.547z" transform="translate(-938 -235) translate(869 70) translate(0 151) translate(13 1) translate(41) translate(15 13) translate(.4 .4) translate(1.6 1.6) translate(2.3 .85) translate(4.6 6.9)"/>
                                            </g>
                                            <path d="M17.688 1.323H1.862c-.877 0-1.6.69-1.682 1.576l-.008.168v19.166c0 .908.672 1.652 1.527 1.737l.163.008h15.826c.877 0 1.6-.691 1.682-1.577l.008-.168V3.067c0-.908-.672-1.652-1.527-1.737l-.163-.008zm0 1.092c.318 0 .58.237.63.546l.008.106v19.166c0 .323-.23.593-.534.643l-.104.009H1.862c-.318 0-.58-.237-.63-.546l-.008-.106V3.067c0-.323.23-.593.534-.643l.104-.009h15.826z" transform="translate(-938 -235) translate(869 70) translate(0 151) translate(13 1) translate(41) translate(15 13) translate(.4 .4) translate(1.6 1.6) translate(2.3 .85)"/>
                                        </g>
                                    </g>
                                </g>
                            </g>
                        </g>
                    </g>
                </g>
            </g>
        </g>
    </g>
</svg>
