<svg xmlns="http://www.w3.org/2000/svg" width="30" height="31" viewBox="0 0 30 31">
    <g fill="#FFD316">
        <path d="M15.07 0c-.009.008-.025.008-.05.008C6.737.008 0 6.844 0 15.25c0 3.43 1.154 6.761 3.266 9.444l-2.186 5.15c-.18.423.017.913.426 1.088.147.066.311.083.467.058l8.013-1.429c1.605.59 3.29.89 4.994.88C23.263 30.44 30 23.606 30 15.2 30.016 6.82 23.329.008 15.07 0zm-.082 28.788c-1.58 0-3.144-.29-4.625-.856-.14-.058-.287-.066-.434-.041l-6.745 1.196 1.785-4.211c.122-.29.073-.631-.131-.872-.966-1.138-1.736-2.434-2.276-3.837-.606-1.57-.917-3.24-.917-4.926 0-7.492 6.008-13.58 13.384-13.58 7.358-.016 13.334 6.022 13.342 13.489v.05c0 7.5-6.008 13.588-13.383 13.588z"/>
        <path d="M14.19 12.098H9.81c-.445 0-.81.34-.81.756s.365.756.81.756h4.38c.445 0 .81-.34.81-.756s-.365-.756-.81-.756zM20.167 16.634H9.833c-.458 0-.833.34-.833.756s.375.756.833.756h10.334c.458 0 .833-.34.833-.756s-.375-.756-.833-.756z"/>
    </g>
</svg>
