<svg xmlns="http://www.w3.org/2000/svg" width="20" height="20" viewBox="0 0 20 20">
    <g fill="none" fill-rule="evenodd">
        <g fill="#FFF" fill-rule="nonzero">
            <g>
                <g>
                    <g>
                        <g>
                            <path d="M10.591 9.75V.562C10.591.25 10.328 0 10 0c-.328 0-.591.25-.591.562V9.75C8.038 10.012 7 11.166 7 12.55s1.038 2.536 2.409 2.799v4.09c0 .312.263.562.591.562.328 0 .591-.25.591-.562v-4.09c1.371-.263 2.409-1.416 2.409-2.8 0-1.378-1.034-2.536-2.409-2.798zM10 14.277c-1.003 0-1.818-.774-1.818-1.728S8.997 10.82 10 10.82c1.003 0 1.818.775 1.818 1.729 0 .954-.815 1.728-1.818 1.728zM3.591 5.035V.562C3.591.25 3.328 0 3 0c-.328 0-.591.25-.591.562v4.473C1.038 5.298 0 6.451 0 7.835c0 1.382 1.038 2.536 2.409 2.798v8.805c0 .312.263.562.591.562.328 0 .591-.25.591-.562v-8.81C4.962 10.368 6 9.214 6 7.83S4.962 5.298 3.591 5.035zM3 9.563c-1.003 0-1.818-.775-1.818-1.729 0-.954.815-1.728 1.818-1.728 1.003 0 1.818.774 1.818 1.728S3.998 9.563 3 9.563zM17.591 5.034V.562C17.591.25 17.328 0 17 0c-.328 0-.591.25-.591.562v4.472C15.038 5.297 14 6.45 14 7.833c0 1.382 1.038 2.536 2.409 2.798v8.807c0 .312.263.562.591.562.328 0 .591-.25.591-.562v-8.811C18.962 10.364 20 9.21 20 7.828c0-1.382-1.034-2.531-2.409-2.794zM17 9.561c-1.003 0-1.818-.775-1.818-1.728 0-.954.815-1.728 1.818-1.728 1.003 0 1.818.774 1.818 1.728 0 .953-.815 1.728-1.818 1.728z" transform="translate(-32 -99) translate(0 70) translate(32 24) translate(0 5) rotate(90 10 10)"/>
                        </g>
                    </g>
                </g>
            </g>
        </g>
    </g>
</svg>
