<svg xmlns="http://www.w3.org/2000/svg" width="30" height="30" viewBox="0 0 30 30">
    <path fill="#909090" fill-rule="evenodd" d="M14.172 13.866c.32-.289.32-.758 0-1.047-.319-.29-.837-.29-1.156 0l-4.328 3.92c-.738.668-1.137 1.535-1.137 2.475 0 .939.4 1.806 1.137 2.474 1.516 1.373 3.969 1.373 5.464 0l9.773-8.851c1.017-.922 1.575-2.15 1.575-3.45 0-1.301-.558-2.53-1.575-3.45-2.114-1.916-5.525-1.916-7.639 0L6.534 14.77C5.218 15.962 4.5 17.534 4.5 19.214c0 1.68.718 3.27 2.034 4.443C7.85 24.85 9.585 25.5 11.44 25.5c1.855 0 3.61-.65 4.906-1.843l4.328-3.92c.319-.289.319-.758 0-1.047-.32-.29-.838-.29-1.157 0l-4.328 3.92c-.997.903-2.333 1.409-3.749 1.409s-2.752-.506-3.75-1.41c-.996-.903-1.555-2.113-1.555-3.395 0-1.283.559-2.493 1.556-3.397l9.752-8.833c.718-.65 1.655-.994 2.652-.994.998 0 1.955.362 2.653.994.718.65 1.097 1.5 1.097 2.402 0 .904-.4 1.77-1.097 2.403l-9.772 8.852c-.858.776-2.274.776-3.151 0-.419-.38-.658-.886-.658-1.427 0-.542.239-1.048.658-1.428l4.347-3.92z"/>
</svg>
