<svg xmlns="http://www.w3.org/2000/svg" width="31" height="32" viewBox="0 0 31 32">
    <g fill="none" fill-rule="evenodd">
        <g fill="#C9C9C9" fill-rule="nonzero">
            <g>
                <g>
                    <g>
                        <g>
                            <path d="M25 .4c3.093 0 5.6 2.507 5.6 5.6 0 3.093-2.507 5.6-5.6 5.6-1.897 0-3.574-.943-4.587-2.386l-9.246 4.623c.279.666.433 1.396.433 2.163 0 .767-.154 1.497-.433 2.163l9.246 4.623C21.426 21.343 23.103 20.4 25 20.4c3.093 0 5.6 2.507 5.6 5.6 0 3.093-2.507 5.6-5.6 5.6-3.093 0-5.6-2.507-5.6-5.6 0-.767.154-1.497.433-2.163l-9.246-4.623C9.574 20.657 7.897 21.6 6 21.6 2.907 21.6.4 19.093.4 16c0-3.093 2.507-5.6 5.6-5.6 1.897 0 3.574.943 4.587 2.386l9.246-4.623C19.554 7.497 19.4 6.767 19.4 6c0-3.093 2.507-5.6 5.6-5.6zm0 21.2c-2.43 0-4.4 1.97-4.4 4.4 0 2.43 1.97 4.4 4.4 4.4 2.43 0 4.4-1.97 4.4-4.4 0-2.43-1.97-4.4-4.4-4.4zm-19-10c-2.43 0-4.4 1.97-4.4 4.4 0 2.43 1.97 4.4 4.4 4.4 2.43 0 4.4-1.97 4.4-4.4 0-2.43-1.97-4.4-4.4-4.4zm19-10c-2.43 0-4.4 1.97-4.4 4.4 0 2.43 1.97 4.4 4.4 4.4 2.43 0 4.4-1.97 4.4-4.4 0-2.43-1.97-4.4-4.4-4.4z" transform="translate(-882 -233) translate(869 70) translate(0 151) translate(13 1) translate(0 11)"/>
                        </g>
                    </g>
                </g>
            </g>
        </g>
    </g>
</svg>
