<svg xmlns="http://www.w3.org/2000/svg" width="16" height="16" viewBox="0 0 16 16">
    <g fill="none" fill-rule="evenodd">
        <g fill="#C9C9C9">
            <g>
                <path d="M8 23c4.418 0 8-3.582 8-8s-3.582-8-8-8-8 3.582-8 8 3.582 8 8 8zm.867-2.724v-1.271c.781-.086 1.379-.313 1.793-.68.414-.367.621-.834.621-1.4 0-.457-.142-.844-.428-1.16-.285-.317-.798-.618-1.54-.903l-.446-.17V12.56c.606.047 1.215.192 1.828.434l.428-1.072c-.711-.293-1.463-.453-2.256-.48v-.968h-.78v.985c-.718.074-1.287.285-1.707.633-.42.347-.63.79-.63 1.33 0 .504.147.927.442 1.268.295.342.763.636 1.404.882l.492.182v2.191c-.356-.004-.758-.061-1.207-.173-.45-.111-.842-.249-1.178-.413v1.237c.621.28 1.416.43 2.385.445v1.236h.78zm-.78-5.87c-.362-.145-.613-.292-.752-.44-.139-.149-.208-.334-.208-.557 0-.215.082-.395.246-.539.164-.145.402-.24.715-.287v1.822zm.78 3.491v-1.869c.371.137.636.278.794.425.158.146.237.333.237.56 0 .484-.343.779-1.03.884z" transform="translate(-435 -242) translate(435 235)"/>
            </g>
        </g>
    </g>
</svg>
