<svg xmlns="http://www.w3.org/2000/svg" width="49" height="31" viewBox="0 0 49 31">
    <g fill="none">
        <path fill="#315881" d="M49 3.531C49 1.171 47.777 0 45.404 0H3.595C2.41 0 1.538.316.964.966.315 1.616 0 2.453 0 3.531V27.47c0 1.078.315 1.895.964 2.564.667.651 1.52.967 2.631.967h41.81C47.776 31 49 29.811 49 27.47V3.53zM45.404.558c1.965 0 2.966 1.003 2.966 2.973V27.47c0 1.988-1.001 2.973-2.966 2.973H3.595c-.945 0-1.667-.279-2.205-.836-.556-.54-.834-1.283-.834-2.137V3.53c0-1.97.982-2.973 3.04-2.973h41.808z"/>
        <path fill="#315881" d="M3.884 3c-.779 0-1.268.127-1.54.398C2.11 3.706 2 4.212 2 4.954V10h44V4.954C46 3.634 45.347 3 44.043 3H3.884z"/>
        <path fill="#DFA43B" d="M2 26.995C2 28.32 2.634 29 3.884 29h40.159C45.347 29 46 28.32 46 26.995V22H2v4.995z"/>
        <path fill="#315881" d="M16.712 12.152c0 .237-.037.42-.128.548l-3.224 5.576-.203-6.8H8l1.731.822c.498.31.756.713.756 1.225l.478 7.221h2.524l6.042-9.269h-3.095c.184.165.276.42.276.677zm20.852-.403l.202-.274h-3.15c.11.11.147.165.147.201-.037.146-.11.238-.147.347l-4.586 8.3c-.11.146-.222.274-.35.42h2.597l-.13-.274c0-.238.13-.676.406-1.298l.553-1.023h2.67c.111.859.185 1.572.222 2.102l-.221.494H39l-.479-.695-.957-8.3zm-1.916 5.1h-1.916l1.64-3.125.276 3.126zM27.69 11c-.994 0-1.842.274-2.597.823-.829.475-1.234 1.078-1.234 1.828 0 .86.295 1.609.884 2.175l1.787 1.225c.645.457.958.86.958 1.225 0 .347-.166.658-.479.896-.313.237-.663.347-1.105.347-.645 0-1.75-.457-3.279-1.298v1.7c1.197.713 2.358 1.079 3.481 1.079 1.069 0 1.971-.293 2.745-.95.83-.604 1.234-1.317 1.234-2.103 0-.658-.295-1.261-.958-1.901l-1.713-1.225c-.57-.457-.884-.86-.884-1.17 0-.713.424-1.079 1.29-1.079.589 0 1.455.33 2.615 1.024l.35-1.773c-.976-.549-1.99-.823-3.095-.823zm-6.852 9.744c-.037-.384-.11-.731-.147-1.097l2.34-7.495.552-.677h-3.37c.036.165.073.384.11.549 0 .164 0 .366-.037.548l-2.34 7.422-.478.75h3.37z"/>
    </g>
</svg>
